<?xml version="1.0" encoding="UTF-8" standalone="no"?>
<!DOCTYPE svg PUBLIC "-//W3C//DTD SVG 20010904//EN"
              "http://www.w3.org/TR/2001/REC-SVG-20010904/DTD/svg10.dtd">

<svg xmlns="http://www.w3.org/2000/svg"
     width="10in" height="10in"
     viewBox="0 0 500 500">
  <path id="Selection"
        fill="white" stroke="white" stroke-width="1"
        d="M 290.00,2.58
          C 290.00,2.58 330.00,9.41 330.00,9.41
           330.00,9.41 360.00,14.59 360.00,14.59
           363.37,15.15 373.46,16.68 376.00,18.01
           379.61,19.90 394.07,35.07 398.00,39.00
           398.00,39.00 442.00,83.00 442.00,83.00
           442.00,83.00 470.00,111.00 470.00,111.00
           473.01,114.01 481.30,121.78 482.99,125.00
           484.13,127.16 486.18,139.72 486.75,143.00
           486.75,143.00 493.08,180.00 493.08,180.00
           493.08,180.00 498.75,213.00 498.75,213.00
           499.33,216.47 501.33,225.07 500.67,228.00
           499.59,232.78 487.00,244.00 483.00,248.00
           483.00,248.00 435.00,296.00 435.00,296.00
           435.00,296.00 294.00,437.00 294.00,437.00
           294.00,437.00 251.00,480.00 251.00,480.00
           247.42,483.58 234.36,497.31 231.00,498.98
           226.96,500.98 216.66,498.37 212.00,497.59
           212.00,497.59 168.00,490.42 168.00,490.42
           168.00,490.42 141.00,486.13 141.00,486.13
           137.44,485.63 127.78,484.45 125.00,482.99
           121.39,481.10 106.93,465.93 103.00,462.00
           103.00,462.00 59.00,418.00 59.00,418.00
           59.00,418.00 31.00,390.00 31.00,390.00
           27.99,386.99 19.70,379.22 18.01,376.00
           16.87,373.84 14.82,361.28 14.25,358.00
           14.25,358.00 7.92,321.00 7.92,321.00
           7.92,321.00 2.25,288.00 2.25,288.00
           1.67,284.53 -0.33,275.93 0.33,273.00
           1.42,268.18 14.90,256.10 19.00,252.00
           19.00,252.00 69.00,202.00 69.00,202.00
           69.00,202.00 204.00,67.00 204.00,67.00
           204.00,67.00 247.00,24.00 247.00,24.00
           252.63,18.37 265.25,4.85 271.00,1.02
           277.05,-0.95 283.89,1.47 290.00,2.58 Z
          M 463.13,164.00
          C 463.13,164.00 458.49,138.00 458.49,138.00
           458.49,138.00 446.00,124.00 446.00,124.00
           446.00,124.00 421.00,99.00 421.00,99.00
           421.00,99.00 383.00,61.00 383.00,61.00
           383.00,61.00 364.00,42.98 364.00,42.98
           364.00,42.98 344.00,38.92 344.00,38.92
           344.00,38.92 303.00,33.00 303.00,33.00
           303.00,33.00 309.87,78.00 309.87,78.00
           309.87,78.00 314.31,103.00 314.31,103.00
           314.31,103.00 326.00,116.00 326.00,116.00
           326.00,116.00 348.00,138.00 348.00,138.00
           348.00,138.00 380.00,170.00 380.00,170.00
           380.00,170.00 397.00,186.15 397.00,186.15
           397.00,186.15 418.00,190.41 418.00,190.41
           418.00,190.41 468.00,198.00 468.00,198.00
           468.00,198.00 463.13,164.00 463.13,164.00 Z
          M 245.00,65.00
          C 245.00,65.00 209.00,101.00 209.00,101.00
           209.00,101.00 98.00,212.00 98.00,212.00
           98.00,212.00 51.00,259.00 51.00,259.00
           51.00,259.00 37.00,273.00 37.00,273.00
           35.03,274.97 31.17,278.55 30.11,281.00
           28.65,284.38 31.24,295.92 31.92,300.00
           31.92,300.00 39.00,347.00 39.00,347.00
           45.35,344.00 53.74,334.26 59.00,329.00
           59.00,329.00 95.00,293.00 95.00,293.00
           95.00,293.00 217.00,171.00 217.00,171.00
           217.00,171.00 259.00,129.00 259.00,129.00
           262.48,125.52 274.11,114.86 275.36,111.00
           276.37,107.90 273.73,94.92 273.08,91.00
           273.08,91.00 266.00,45.00 266.00,45.00
           259.91,49.36 250.69,59.31 245.00,65.00 Z
          M 316.00,152.00
          C 316.00,152.00 303.00,139.02 303.00,139.02
           301.49,137.58 299.24,135.20 297.00,135.20
           293.67,135.20 285.57,144.43 283.00,147.00
           283.00,147.00 248.00,182.00 248.00,182.00
           248.00,182.00 108.00,322.00 108.00,322.00
           108.00,322.00 69.00,361.00 69.00,361.00
           66.32,363.68 56.20,372.62 56.20,376.00
           56.20,378.24 58.58,380.49 60.02,382.00
           60.02,382.00 73.00,395.00 73.00,395.00
           73.00,395.00 107.00,429.00 107.00,429.00
           112.55,434.55 120.99,443.70 127.00,448.00
           127.00,448.00 289.00,286.00 289.00,286.00
           289.00,286.00 341.00,234.00 341.00,234.00
           341.00,234.00 369.00,205.00 369.00,205.00
           369.00,205.00 316.00,152.00 316.00,152.00 Z
          M 396.00,227.17
          C 387.80,226.53 382.27,234.73 377.00,240.00
           377.00,240.00 335.00,282.00 335.00,282.00
           335.00,282.00 216.00,401.00 216.00,401.00
           216.00,401.00 177.00,440.00 177.00,440.00
           171.19,445.81 160.41,455.84 156.00,462.00
           156.00,462.00 201.00,469.08 201.00,469.08
           205.15,469.77 216.61,472.49 220.00,470.94
           223.22,469.47 236.54,455.46 240.00,452.00
           240.00,452.00 282.00,410.00 282.00,410.00
           282.00,410.00 402.00,290.00 402.00,290.00
           402.00,290.00 437.00,255.00 437.00,255.00
           442.17,249.83 451.01,242.33 454.00,236.00
           454.00,236.00 396.00,227.17 396.00,227.17 Z" />
</svg>
