<?xml version="1.0" encoding="UTF-8" standalone="no"?>
<!DOCTYPE svg PUBLIC "-//W3C//DTD SVG 20010904//EN"
              "http://www.w3.org/TR/2001/REC-SVG-20010904/DTD/svg10.dtd">

<svg xmlns="http://www.w3.org/2000/svg"
     width="5in" height="5.6in"
     viewBox="0 210 600 300">
  <path id="Selection"
        fill="black" stroke="black" stroke-width="1"
        d="M 237.00,31.62
          C 237.00,31.62 251.00,31.00 251.00,31.00
           251.00,31.00 285.00,27.00 285.00,27.00
           285.00,27.00 300.00,26.00 300.00,26.00
           301.54,31.73 304.13,40.35 308.39,44.61
           316.76,52.99 341.53,52.06 353.00,52.00
           359.21,51.97 363.90,50.89 368.72,46.61
           372.00,43.69 376.39,37.15 380.96,36.65
           383.79,36.34 389.65,40.57 391.83,42.34
           391.83,42.34 401.58,49.60 401.58,49.60
           401.58,49.60 410.00,56.83 410.00,56.83
           412.52,58.86 416.52,60.94 418.30,63.21
           424.27,70.82 423.17,88.62 425.35,94.00
           425.35,94.00 429.36,102.00 429.36,102.00
           429.36,102.00 432.34,110.00 432.34,110.00
           432.34,110.00 437.33,120.00 437.33,120.00
           441.78,130.01 444.12,141.10 444.00,152.00
           444.00,152.00 439.28,192.00 439.28,192.00
           439.28,192.00 438.57,202.00 438.57,202.00
           438.57,202.00 436.04,215.00 436.04,215.00
           436.04,215.00 436.04,223.00 436.04,223.00
           436.04,223.00 433.94,240.00 433.94,240.00
           433.94,240.00 433.94,249.00 433.94,249.00
           433.94,249.00 431.28,263.00 431.28,263.00
           431.28,263.00 428.00,307.00 428.00,307.00
           415.44,309.40 416.40,322.57 420.65,327.79
           426.14,334.53 433.59,330.68 437.00,331.01
           440.54,331.35 444.54,334.64 449.00,335.61
           451.40,336.13 454.74,335.75 456.42,337.02
           458.31,338.46 460.20,347.32 461.02,350.00
           464.35,360.87 461.98,361.07 463.76,368.00
           463.76,368.00 472.00,393.00 472.00,393.00
           467.66,395.87 466.43,397.10 464.35,402.00
           463.30,404.46 462.93,408.13 460.57,409.51
           455.59,412.43 451.30,408.05 442.00,408.00
           434.15,407.96 425.85,406.87 419.21,411.96
           412.55,417.08 412.56,426.51 411.83,434.00
           411.83,434.00 410.00,450.00 410.00,450.00
           410.00,450.00 408.05,474.00 408.05,474.00
           408.05,474.00 408.05,488.00 408.05,488.00
           408.12,497.07 411.90,503.78 421.00,506.37
           423.60,507.10 426.33,507.00 429.00,507.00
           443.04,507.02 440.27,506.15 454.00,509.78
           457.69,510.75 462.70,512.28 465.16,515.39
           469.10,520.36 468.79,534.84 478.04,540.65
           488.08,546.96 503.96,543.56 515.00,542.00
           515.36,548.54 518.45,554.40 518.19,561.00
           518.19,561.00 517.00,580.00 517.00,580.00
           517.00,580.00 517.00,606.00 517.00,606.00
           517.03,623.27 527.46,626.71 532.78,636.00
           535.70,641.12 538.29,655.20 540.59,662.00
           540.59,662.00 548.00,679.00 548.00,679.00
           545.47,680.44 541.33,682.44 539.39,684.39
           539.39,684.39 533.61,692.79 533.61,692.79
           530.66,695.96 522.27,698.65 518.00,698.71
           511.14,698.80 501.69,687.07 495.83,682.62
           487.50,676.29 481.70,677.02 472.00,676.95
           472.00,676.95 467.00,676.95 467.00,676.95
           452.92,675.30 467.43,660.79 469.37,654.00
           470.36,650.51 470.05,638.30 470.00,634.00
           469.92,627.45 468.59,615.19 466.65,609.00
           466.65,609.00 459.55,592.00 459.55,592.00
           457.07,585.08 455.93,575.95 451.37,570.09
           447.47,565.09 438.51,561.36 433.00,558.08
           424.79,553.19 406.76,543.05 398.00,540.63
           398.00,540.63 378.00,539.00 378.00,539.00
           375.02,538.97 367.92,539.53 365.60,538.01
           365.60,538.01 357.25,528.04 357.25,528.04
           353.24,523.52 347.87,520.49 342.00,519.04
           335.43,517.42 332.84,518.39 327.00,517.83
           327.00,517.83 263.00,517.00 263.00,517.00
           263.00,517.00 239.00,516.00 239.00,516.00
           232.90,516.03 227.02,517.23 222.90,522.21
           220.48,525.14 217.45,531.90 214.61,533.60
           213.31,534.38 209.64,535.24 208.00,535.71
           193.08,539.95 195.11,537.16 182.00,537.00
           178.19,536.96 169.27,536.70 166.00,537.63
           160.78,539.12 158.11,541.94 153.91,544.77
           148.21,548.61 136.34,556.05 132.39,561.00
           126.68,568.15 124.00,577.03 119.83,585.00
           113.72,596.68 105.75,611.07 103.23,624.00
           102.78,627.88 102.98,635.74 103.23,640.00
           103.05,650.34 106.34,654.17 111.00,663.00
           111.00,663.00 98.00,667.31 98.00,667.31
           98.00,667.31 87.83,673.19 87.83,673.19
           87.83,673.19 81.00,675.46 81.00,675.46
           81.00,675.46 69.00,681.34 69.00,681.34
           63.24,684.64 57.18,692.31 50.09,691.40
           45.47,690.80 44.02,684.35 41.37,681.21
           38.58,677.91 34.04,676.15 30.00,675.00
           30.00,675.00 28.31,665.00 28.31,665.00
           28.56,660.88 32.18,656.16 33.37,652.00
           34.34,648.58 33.94,642.74 34.00,639.00
           34.12,632.57 38.56,626.44 44.09,623.13
           46.46,621.72 52.20,620.39 55.79,617.37
           61.06,612.92 61.99,606.41 61.85,600.00
           61.85,600.00 61.85,584.00 61.85,584.00
           60.67,577.02 59.05,578.27 59.00,569.00
           59.00,569.00 59.00,545.00 59.00,545.00
           59.00,542.75 58.78,539.31 60.02,537.39
           62.80,533.10 76.10,531.02 81.00,531.00
           94.08,530.94 103.14,530.24 106.00,515.00
           106.00,515.00 152.00,502.55 152.00,502.55
           158.17,500.82 167.80,498.76 172.61,494.37
           177.33,490.05 177.99,483.94 178.00,478.00
           178.00,478.00 178.00,469.00 178.00,469.00
           177.95,459.69 173.68,450.99 171.59,442.00
           170.68,438.04 171.02,431.30 171.00,427.00
           170.96,417.94 170.41,404.66 161.96,399.35
           160.09,398.18 157.16,396.85 155.00,396.51
           151.74,395.68 137.14,395.74 134.00,396.51
           128.74,398.13 125.97,401.26 119.00,403.00
           114.50,393.21 106.85,393.00 105.91,384.00
           105.34,378.60 109.72,378.96 113.72,371.00
           115.77,366.93 117.94,352.78 118.00,348.00
           118.03,345.40 117.57,339.61 118.99,337.57
           120.69,335.13 127.07,333.98 130.00,333.14
           136.65,331.23 142.62,328.50 147.99,324.06
           163.61,311.17 162.22,302.57 162.00,284.00
           161.89,275.31 160.02,276.92 160.00,266.00
           160.00,266.00 160.00,253.00 160.00,253.00
           159.98,242.60 158.97,245.56 158.18,239.00
           158.18,239.00 157.00,212.00 157.00,212.00
           157.00,212.00 154.00,177.00 154.00,177.00
           154.00,177.00 152.83,153.00 152.83,153.00
           152.83,153.00 151.11,133.00 151.11,133.00
           151.11,133.00 151.11,122.00 151.11,122.00
           151.76,118.04 155.59,103.25 157.81,100.30
           160.78,96.37 167.13,93.78 170.61,90.40
           175.36,85.80 175.99,80.18 176.00,74.00
           176.00,74.00 176.00,63.00 176.00,63.00
           176.21,51.59 182.49,56.09 200.00,56.00
           213.41,55.93 219.87,49.36 220.00,36.00
           220.00,36.00 237.00,31.62 237.00,31.62 Z
          M 211.40,344.42
          C 211.40,344.42 211.40,339.96 211.40,339.96
           211.40,339.96 211.40,335.00 211.40,335.00
           211.40,335.00 211.40,323.01 211.40,323.01
           211.40,323.01 211.40,317.58 211.40,317.58
           211.40,317.58 211.40,306.00 211.40,306.00
           211.40,306.00 211.40,292.00 211.40,292.00
           211.40,292.00 211.40,280.00 211.40,280.00
           211.40,276.38 210.41,276.42 210.71,272.00
           210.71,272.00 211.23,252.00 211.23,252.00
           210.65,245.41 210.74,244.40 211.23,237.91
           211.23,237.91 210.37,222.00 210.37,222.00
           210.37,222.00 211.19,210.00 211.19,210.00
           211.19,210.00 210.00,200.00 210.00,200.00
           209.96,196.95 210.51,189.88 209.01,187.48
           207.31,184.77 201.85,182.50 199.00,180.86
           199.00,180.86 189.00,175.35 189.00,175.35
           189.00,175.35 181.00,172.32 181.00,172.32
           176.07,169.96 171.17,166.39 166.00,165.00
           166.00,165.00 166.81,188.57 166.81,188.57
           166.81,188.57 166.81,194.01 166.81,194.01
           166.81,194.01 168.42,202.00 168.42,202.00
           168.42,202.00 168.42,207.00 168.42,207.00
           168.42,207.00 169.35,214.00 169.35,214.00
           169.35,214.00 169.35,220.00 169.35,220.00
           169.35,220.00 169.35,230.00 169.35,230.00
           169.35,230.00 170.91,237.00 170.91,237.00
           170.91,237.00 171.47,254.00 171.47,254.00
           171.47,254.00 173.26,282.00 173.26,282.00
           173.26,282.00 174.67,293.00 174.67,293.00
           174.67,293.00 174.67,299.00 174.67,299.00
           174.67,299.00 175.61,305.00 175.61,305.00
           175.61,305.00 175.61,320.00 175.61,320.00
           175.61,320.00 176.78,326.00 176.78,326.00
           176.78,326.00 178.42,337.91 178.42,337.91
           178.42,337.91 187.00,345.42 187.00,345.42
           187.00,345.42 211.40,361.00 211.40,361.00
           213.57,352.04 211.66,351.56 211.40,344.42 Z
          M 316.00,192.70
          C 316.00,192.70 310.01,192.70 310.01,192.70
           310.01,192.70 300.96,191.43 300.96,191.43
           300.96,191.43 294.00,192.22 294.00,192.22
           294.00,192.22 263.00,191.00 263.00,191.00
           260.00,191.00 249.78,190.18 248.11,192.60
           247.24,193.86 247.60,196.47 247.42,198.00
           247.42,198.00 247.42,220.00 247.42,220.00
           247.42,220.00 246.72,234.00 246.72,234.00
           246.72,234.00 247.50,241.00 247.50,241.00
           247.50,241.00 247.50,261.00 247.50,261.00
           247.50,261.00 248.28,279.00 248.28,279.00
           248.28,279.00 248.28,316.00 248.28,316.00
           248.28,316.00 248.28,332.00 248.28,332.00
           248.28,332.00 248.99,351.00 248.99,351.00
           248.99,351.00 248.47,362.00 248.47,362.00
           248.47,362.00 248.47,370.00 248.47,370.00
           248.62,372.90 248.08,384.61 249.26,386.47
           251.58,390.09 257.72,387.98 261.00,388.05
           261.00,388.05 270.00,388.05 270.00,388.05
           270.00,388.05 279.99,388.05 279.99,388.05
           279.99,388.05 285.42,388.05 285.42,388.05
           285.42,388.05 296.00,389.21 296.00,389.21
           296.00,389.21 302.00,388.37 302.00,388.37
           302.00,388.37 333.00,389.00 333.00,389.00
           336.29,374.93 335.95,348.67 337.09,333.00
           337.09,333.00 338.97,315.83 338.97,315.83
           338.97,315.83 338.97,302.00 338.97,302.00
           338.97,302.00 340.36,291.97 340.36,291.97
           340.36,291.97 340.36,279.04 340.36,279.04
           340.36,279.04 341.61,269.99 341.61,269.99
           341.61,269.99 342.56,258.00 342.56,258.00
           342.56,258.00 342.56,247.00 342.56,247.00
           342.56,247.00 343.80,238.00 343.80,238.00
           343.80,238.00 343.80,227.17 343.80,227.17
           343.80,227.17 345.94,206.00 345.94,206.00
           345.94,206.00 345.94,192.70 345.94,192.70
           345.94,192.70 316.00,192.70 316.00,192.70 Z
          M 382.00,220.00
          C 382.00,220.00 380.32,253.00 380.32,253.00
           380.32,253.00 379.51,262.00 379.51,262.00
           379.51,262.00 378.21,281.00 378.21,281.00
           378.21,281.00 378.21,296.00 378.21,296.00
           378.21,296.00 376.52,309.00 376.52,309.00
           376.52,309.00 375.34,340.00 375.34,340.00
           375.34,340.00 373.00,369.00 373.00,369.00
           380.07,368.02 393.09,357.84 399.00,353.25
           401.21,351.54 404.53,349.93 406.09,347.78
           406.09,347.78 410.47,336.14 410.47,336.14
           412.56,332.47 415.13,333.46 416.40,330.69
           417.69,327.87 415.80,322.87 415.00,320.00
           412.39,310.61 411.78,310.96 412.35,301.00
           412.35,301.00 414.29,282.00 414.29,282.00
           414.29,282.00 415.63,275.00 415.63,275.00
           415.63,275.00 417.68,249.00 417.68,249.00
           417.68,249.00 421.00,224.00 421.00,224.00
           421.00,224.00 392.00,230.00 392.00,230.00
           390.88,224.72 388.13,219.21 382.00,220.00 Z
          M 256.00,425.50
          C 254.38,425.49 252.81,425.14 251.31,426.06
           248.25,427.95 248.70,439.42 248.63,443.00
           248.63,443.00 249.46,462.00 249.46,462.00
           249.46,462.00 249.46,483.00 249.46,483.00
           249.46,483.00 250.59,489.00 250.59,489.00
           251.15,494.36 249.24,495.04 253.00,503.05
           262.31,500.96 258.84,502.43 267.00,503.05
           267.00,503.05 275.00,503.05 275.00,503.05
           275.00,503.05 285.00,503.69 285.00,503.69
           285.00,503.69 298.00,503.69 298.00,503.69
           298.00,503.69 308.00,503.69 308.00,503.69
           311.15,503.92 320.10,504.60 322.01,502.26
           323.05,500.98 323.30,496.85 323.52,495.09
           323.52,495.09 325.78,481.00 325.78,481.00
           325.78,481.00 329.42,461.00 329.42,461.00
           329.99,456.49 329.35,456.55 329.42,453.00
           329.42,453.00 330.10,446.00 330.10,446.00
           330.76,440.22 331.45,430.46 330.10,425.00
           330.10,425.00 324.00,426.00 324.00,426.00
           324.00,429.93 324.53,437.60 322.84,440.91
           318.04,450.31 309.89,451.13 301.00,453.77
           297.16,454.91 293.07,456.74 289.00,456.71
           289.00,456.71 284.09,456.71 284.09,456.71
           282.49,456.60 281.41,457.04 279.72,456.71
           266.23,454.62 265.97,434.76 261.00,425.00
           258.70,425.45 258.38,425.53 256.00,425.50 Z" />
</svg>
