<?xml version="1.0" encoding="UTF-8" standalone="no"?>
<!DOCTYPE svg PUBLIC "-//W3C//DTD SVG 20010904//EN"
              "http://www.w3.org/TR/2001/REC-SVG-20010904/DTD/svg10.dtd">

<svg xmlns="http://www.w3.org/2000/svg"
     width="10in" height="10in"
     viewBox="0 0 1050 1050">
  <path id="Selection"
        fill="black" stroke="black" stroke-width="1"
        d="M 781.00,4.72
          C 788.37,6.92 797.13,11.62 804.00,12.55
           810.77,13.46 816.65,9.20 823.00,7.49
           830.51,5.46 838.30,5.99 846.00,6.00
           878.73,6.05 899.78,28.35 920.17,51.00
           920.17,51.00 948.08,83.00 948.08,83.00
           954.48,90.65 960.60,96.39 965.94,105.00
           972.92,116.28 977.84,135.72 978.00,149.00
           978.15,162.39 977.32,174.74 971.19,187.00
           971.19,187.00 946.34,222.00 946.34,222.00
           946.34,222.00 886.42,313.00 886.42,313.00
           886.42,313.00 868.34,338.00 868.34,338.00
           868.34,338.00 845.11,372.00 845.11,372.00
           819.08,406.69 785.06,439.54 739.00,439.00
           713.17,438.69 685.02,417.60 666.00,401.75
           666.00,401.75 638.00,376.01 638.00,376.01
           629.63,367.85 624.38,364.07 618.81,353.00
           606.48,328.49 606.96,290.20 607.00,263.00
           607.00,263.00 608.00,247.00 608.00,247.00
           608.00,247.00 610.61,193.00 610.61,193.00
           615.57,164.80 637.08,116.36 651.14,91.00
           651.14,91.00 684.00,34.00 684.00,34.00
           690.60,24.09 696.45,14.33 707.00,8.09
           715.47,3.09 727.39,1.82 737.00,0.42
           750.74,-1.25 767.76,0.77 781.00,4.72 Z
          M 739.18,60.98
          C 736.01,62.94 730.35,72.46 728.20,76.00
           728.20,76.00 702.25,123.00 702.25,123.00
           702.25,123.00 678.40,175.00 678.40,175.00
           673.09,188.28 668.02,202.55 668.00,217.00
           668.00,217.00 667.00,247.00 667.00,247.00
           667.00,247.00 666.00,264.00 666.00,264.00
           666.00,264.00 666.00,286.00 666.00,286.00
           666.10,294.26 668.48,318.28 672.23,325.00
           674.76,329.55 691.17,343.90 696.00,348.15
           705.77,356.75 717.85,366.91 729.00,373.55
           733.36,376.14 739.83,379.92 745.00,379.24
           756.42,377.73 771.16,364.98 778.99,357.00
           796.02,339.63 808.65,318.91 822.35,299.00
           822.35,299.00 838.42,277.00 838.42,277.00
           838.42,277.00 896.33,189.00 896.33,189.00
           896.33,189.00 910.89,168.00 910.89,168.00
           914.02,163.83 918.37,159.46 918.73,154.00
           918.84,152.19 918.38,149.81 918.08,148.00
           915.93,135.15 911.25,132.45 903.13,123.00
           903.13,123.00 868.00,83.00 868.00,83.00
           861.81,76.74 854.74,67.96 846.00,65.91
           839.76,64.44 836.80,67.62 831.00,69.25
           825.84,70.71 813.46,71.98 808.00,72.00
           798.94,72.04 786.55,70.88 778.00,68.00
           766.45,64.10 758.23,58.15 745.00,59.29
           743.02,59.64 740.94,59.90 739.18,60.98 Z
          M 317.00,189.21
          C 332.48,189.07 352.80,196.05 367.00,202.15
           395.10,214.22 425.85,233.79 451.00,251.28
           451.00,251.28 469.00,263.02 469.00,263.02
           483.85,273.26 497.81,284.80 511.00,297.09
           511.00,297.09 531.09,318.00 531.09,318.00
           566.81,356.54 586.79,386.42 610.25,433.00
           610.25,433.00 621.31,455.00 621.31,455.00
           633.63,481.83 650.95,512.90 651.00,543.00
           651.00,543.00 651.00,647.00 651.00,647.00
           651.02,662.91 657.00,665.83 666.13,678.00
           675.83,690.93 686.80,706.14 687.00,723.00
           687.00,723.00 687.00,791.00 687.00,791.00
           686.97,809.92 675.64,833.22 667.25,850.00
           648.25,887.99 623.18,927.68 598.15,962.00
           586.41,978.10 574.12,993.90 560.00,1008.00
           547.13,1020.85 535.87,1029.97 517.00,1030.00
           517.00,1030.00 452.00,1030.00 452.00,1030.00
           425.96,1029.69 400.04,1010.87 380.00,995.87
           380.00,995.87 365.00,985.23 365.00,985.23
           357.85,980.75 350.65,976.84 344.00,971.55
           321.24,953.44 301.04,932.06 280.00,912.04
           271.88,904.32 254.51,895.54 244.00,890.86
           232.10,885.56 223.10,882.90 214.52,872.00
           209.05,865.06 206.03,857.49 203.89,849.00
           202.30,842.66 202.24,836.84 199.10,831.00
           199.10,831.00 167.44,785.00 167.44,785.00
           156.65,760.74 157.13,736.34 152.65,722.00
           147.61,705.85 138.36,684.63 131.30,669.00
           131.30,669.00 102.69,609.00 102.69,609.00
           102.69,609.00 88.97,585.00 88.97,585.00
           80.30,572.28 70.52,560.73 63.32,547.00
           58.54,537.90 56.94,529.30 53.56,520.00
           53.56,520.00 35.74,480.00 35.74,480.00
           35.74,480.00 16.69,440.00 16.69,440.00
           13.23,432.46 9.34,426.09 6.75,418.00
           4.05,409.60 1.70,393.92 1.00,385.00
           1.00,385.00 1.00,376.00 1.00,376.00
           1.00,376.00 0.00,366.00 0.00,366.00
           -0.22,346.67 0.49,323.34 6.67,305.00
           11.91,289.41 24.93,274.33 35.58,262.00
           44.93,251.17 63.74,232.98 75.00,224.00
           80.98,219.23 91.16,211.57 98.00,208.51
           112.12,202.20 136.34,199.51 152.00,197.84
           152.00,197.84 213.00,192.91 213.00,192.91
           213.00,192.91 249.00,191.00 249.00,191.00
           249.00,191.00 262.00,190.00 262.00,190.00
           262.00,190.00 284.00,189.21 284.00,189.21
           284.00,189.21 317.00,189.21 317.00,189.21 Z
          M 264.00,249.00
          C 264.00,249.00 250.00,250.00 250.00,250.00
           250.00,250.00 217.00,251.91 217.00,251.91
           217.00,251.91 168.00,255.83 168.00,255.83
           157.50,256.88 131.66,259.25 123.00,263.40
           111.13,269.09 93.04,288.08 83.92,298.00
           76.84,305.69 66.20,317.29 62.47,327.00
           60.52,332.06 59.03,346.35 59.00,352.00
           59.00,352.00 59.00,365.00 59.00,365.00
           59.09,372.07 61.30,392.65 63.55,399.00
           63.55,399.00 85.69,445.00 85.69,445.00
           85.69,445.00 108.55,496.00 108.55,496.00
           112.41,505.72 111.89,509.90 117.11,520.00
           122.81,531.04 128.57,537.20 135.57,547.00
           140.79,554.30 145.42,562.11 149.69,570.00
           169.26,606.10 195.77,662.36 208.65,701.00
           208.65,701.00 220.79,757.00 220.79,757.00
           222.72,761.50 228.90,768.64 232.12,773.00
           232.12,773.00 251.57,802.00 251.57,802.00
           254.94,807.89 257.49,813.38 259.10,820.00
           259.77,822.73 260.65,830.59 261.98,832.35
           263.24,834.04 277.97,840.73 281.00,842.25
           294.14,848.82 309.21,857.09 320.00,867.09
           320.00,867.09 379.00,922.74 379.00,922.74
           387.08,929.30 389.12,929.42 397.00,934.44
           397.00,934.44 414.00,946.42 414.00,946.42
           426.46,955.42 444.15,970.81 460.00,971.00
           460.00,971.00 504.00,971.00 504.00,971.00
           515.17,970.98 516.73,966.76 523.98,959.00
           532.92,949.42 546.89,930.97 554.71,920.00
           574.09,892.81 597.35,855.80 612.25,826.00
           619.84,810.82 628.97,794.35 629.00,777.00
           629.00,777.00 629.00,737.00 629.00,737.00
           628.82,722.51 614.65,710.27 606.72,699.00
           595.77,683.43 594.63,680.60 592.83,662.00
           592.83,662.00 592.00,651.00 592.00,651.00
           592.00,651.00 592.00,549.00 592.00,549.00
           591.98,534.45 586.18,522.03 580.30,509.00
           580.30,509.00 556.25,459.00 556.25,459.00
           556.25,459.00 529.48,411.00 529.48,411.00
           516.20,391.20 483.56,353.05 466.00,337.17
           444.35,317.59 419.68,301.43 395.00,285.95
           378.24,275.44 361.21,264.97 343.00,257.15
           331.27,252.11 320.98,248.02 308.00,248.14
           308.00,248.14 283.00,248.14 283.00,248.14
           276.31,249.25 270.68,248.97 264.00,249.00 Z
          M 947.00,528.00
          C 947.06,541.62 945.85,553.56 939.63,566.00
           935.97,573.32 930.90,579.84 925.57,586.00
           923.46,588.44 918.59,592.57 917.60,595.09
           916.56,597.71 917.04,611.22 917.00,615.00
           916.94,620.21 915.65,626.96 914.26,632.00
           904.98,665.44 867.21,673.88 837.00,676.09
           837.00,676.09 827.00,677.00 827.00,677.00
           827.00,677.00 797.00,677.00 797.00,677.00
           767.58,676.65 731.42,665.61 719.45,636.00
           715.09,625.20 715.98,619.21 716.00,608.00
           716.03,591.84 725.09,577.13 735.08,565.00
           750.00,546.91 767.71,533.55 786.00,519.21
           786.00,519.21 805.82,503.71 805.82,503.71
           805.82,503.71 819.09,487.00 819.09,487.00
           833.85,471.07 849.20,459.72 871.00,456.42
           910.59,451.59 946.82,489.58 947.00,528.00 Z
          M 790.00,616.26
          C 805.43,619.12 821.57,618.28 837.00,616.26
           841.09,615.56 854.58,613.69 856.83,610.52
           858.24,608.51 858.00,604.42 858.00,602.00
           858.02,590.88 856.92,577.14 861.99,567.00
           865.75,559.49 872.17,553.86 878.00,548.00
           882.16,543.81 886.36,540.24 886.89,534.00
           887.36,528.61 883.13,516.02 875.99,517.83
           866.82,520.15 856.95,538.04 850.00,545.00
           842.06,552.93 828.30,562.79 819.00,569.88
           819.00,569.88 796.00,588.85 796.00,588.85
           788.96,595.04 778.90,603.90 776.00,613.00
           776.00,613.00 790.00,616.26 790.00,616.26 Z" />
</svg>
