<?xml version="1.0" encoding="UTF-8" standalone="no"?>
<!DOCTYPE svg PUBLIC "-//W3C//DTD SVG 20010904//EN"
              "http://www.w3.org/TR/2001/REC-SVG-20010904/DTD/svg10.dtd">

<svg xmlns="http://www.w3.org/2000/svg"
     width="10in" height="8in"
     viewBox="0 100 1000 600">
  <path id="Selection"
        fill="white" stroke="black" stroke-width="1"
        d="M 583.00,7.00
C 583.00,7.00 583.00,319.00 583.00,319.00
 583.00,319.00 583.00,390.00 583.00,390.00
 583.00,395.97 581.15,408.75 587.06,411.98
 589.27,413.19 592.52,413.00 595.00,413.00
 595.00,413.00 899.00,413.00 899.00,413.00
 899.00,413.00 899.00,669.00 899.00,669.00
 899.00,669.00 899.00,735.00 899.00,735.00
 899.02,744.68 900.32,745.98 910.00,746.00
 910.00,746.00 993.00,746.00 993.00,746.00
 993.00,746.00 993.00,813.00 993.00,813.00
 993.00,813.00 7.00,813.00 7.00,813.00
 7.00,813.00 7.00,746.00 7.00,746.00
 7.00,746.00 71.00,746.00 71.00,746.00
 80.68,745.98 81.98,744.68 82.00,735.00
 82.00,735.00 82.00,558.00 82.00,558.00
 82.00,558.00 200.00,558.00 200.00,558.00
 200.00,558.00 225.00,558.00 225.00,558.00
 228.20,557.98 231.22,558.15 233.69,555.69
 236.33,553.04 235.99,549.43 236.00,546.00
 236.00,546.00 236.00,7.00 236.00,7.00
 236.00,7.00 583.00,7.00 583.00,7.00 Z
M 495.00,413.00
C 499.37,413.00 513.60,414.25 515.98,410.69
 517.21,408.84 517.00,405.19 517.00,403.00
 517.00,403.00 517.00,203.00 517.00,203.00
 517.00,203.00 517.00,104.00 517.00,104.00
 517.00,104.00 517.00,82.00 517.00,82.00
 516.96,79.86 517.04,77.23 515.40,75.60
 513.48,73.68 509.54,74.01 507.00,74.00
 507.00,74.00 350.00,74.00 350.00,74.00
 350.00,74.00 318.00,74.00 318.00,74.00
 314.97,74.00 306.58,73.51 304.31,75.02
 301.55,76.86 302.01,81.09 302.00,84.00
 302.00,84.00 302.00,139.00 302.00,139.00
 302.06,147.74 303.76,147.98 312.00,148.00
 312.00,148.00 428.00,148.00 428.00,148.00
 428.00,148.00 428.00,214.00 428.00,214.00
 428.00,214.00 332.00,214.00 332.00,214.00
 332.00,214.00 310.00,214.00 310.00,214.00
 307.86,214.04 305.23,213.96 303.60,215.60
 301.68,217.52 302.01,221.46 302.00,224.00
 302.00,224.00 302.00,284.00 302.00,284.00
 302.02,292.92 303.08,293.98 312.00,294.00
 312.00,294.00 428.00,294.00 428.00,294.00
 428.00,294.00 428.00,360.00 428.00,360.00
 428.00,360.00 332.00,360.00 332.00,360.00
 332.00,360.00 310.00,360.00 310.00,360.00
 307.86,360.04 305.23,359.96 303.60,361.60
 301.68,363.52 302.01,367.46 302.00,370.00
 302.00,370.00 302.00,514.00 302.00,514.00
 302.00,514.00 302.00,544.00 302.00,544.00
 302.00,546.78 301.58,553.52 303.02,555.69
 304.86,558.45 309.09,557.99 312.00,558.00
 312.00,558.00 397.00,558.00 397.00,558.00
 397.00,558.00 415.00,558.00 415.00,558.00
 417.73,557.95 420.47,557.97 422.40,555.69
 424.29,553.44 423.99,549.77 424.00,547.00
 424.00,547.00 424.00,413.00 424.00,413.00
 424.00,413.00 495.00,413.00 495.00,413.00 Z
M 802.00,560.00
C 802.00,560.00 824.00,560.00 824.00,560.00
 826.14,559.96 828.77,560.04 830.40,558.40
 832.32,556.48 831.99,552.54 832.00,550.00
 832.00,550.00 832.00,489.00 832.00,489.00
 831.98,480.37 830.63,479.02 822.00,479.00
 822.00,479.00 567.00,479.00 567.00,479.00
 567.00,479.00 510.00,479.00 510.00,479.00
 505.83,479.00 493.37,477.80 491.02,481.31
 489.79,483.16 490.00,486.81 490.00,489.00
 490.00,489.00 490.00,686.00 490.00,686.00
 490.00,686.00 490.00,738.00 490.00,738.00
 490.15,746.15 492.78,745.99 500.00,746.00
 500.00,746.00 755.00,746.00 755.00,746.00
 755.00,746.00 812.00,746.00 812.00,746.00
 816.17,746.00 828.63,747.20 830.98,743.69
 832.21,741.84 832.00,738.19 832.00,736.00
 832.00,736.00 832.00,635.00 832.00,635.00
 831.85,626.85 829.22,627.01 822.00,627.00
 822.00,627.00 705.00,627.00 705.00,627.00
 705.00,627.00 705.00,560.00 705.00,560.00
 705.00,560.00 802.00,560.00 802.00,560.00 Z
M 148.00,634.00
C 148.00,634.00 148.00,653.00 148.00,653.00
 148.00,653.00 148.00,724.00 148.00,724.00
 148.00,728.37 146.75,742.60 150.31,744.98
 152.16,746.21 155.81,746.00 158.00,746.00
 158.00,746.00 362.00,746.00 362.00,746.00
 362.00,746.00 415.00,746.00 415.00,746.00
 423.74,745.94 423.98,744.24 424.00,736.00
 424.00,736.00 424.00,651.00 424.00,651.00
 424.00,651.00 424.00,633.00 424.00,633.00
 423.95,630.27 423.97,627.53 421.69,625.60
 419.44,623.71 415.77,624.01 413.00,624.00
 413.00,624.00 236.00,624.00 236.00,624.00
 236.00,624.00 180.00,624.00 180.00,624.00
 173.49,624.00 156.45,623.40 151.15,624.60
 147.29,627.29 148.01,629.62 148.00,634.00 Z
" />
</svg>
